<?xml version="1.0" encoding="utf-8"?>
<!-- Generator: Adobe Illustrator 15.0.0, SVG Export Plug-In . SVG Version: 6.00 Build 0)  -->
<!DOCTYPE svg PUBLIC "-//W3C//DTD SVG 1.1//EN" "http://www.w3.org/Graphics/SVG/1.1/DTD/svg11.dtd">
<svg version="1.1" id="Layer_1" xmlns="http://www.w3.org/2000/svg" xmlns:xlink="http://www.w3.org/1999/xlink" x="0px" y="0px"
	 width="612px" height="792px" viewBox="0 0 612 792" enable-background="new 0 0 612 792" xml:space="preserve">
<path fill="#55ACEE" d="M612,634c0,37.553-30.447,68-68,68H68c-37.553,0-68-30.447-68-68V158c0-37.553,30.447-68,68-68h476
	c37.553,0,68,30.447,68,68V634z"/>
<path fill="#FFFFFF" d="M573,461.996c0,6.627-5.911,12-13.203,12H48.203c-7.292,0-13.203-5.373-13.203-12V330.004
	c0-6.627,5.911-12,13.203-12h511.594c7.292,0,13.203,5.373,13.203,12V461.996z"/>
</svg>
