<?xml version="1.0" encoding="utf-8"?>
<!-- Generator: Adobe Illustrator 15.0.0, SVG Export Plug-In . SVG Version: 6.00 Build 0)  -->
<!DOCTYPE svg PUBLIC "-//W3C//DTD SVG 1.1//EN" "http://www.w3.org/Graphics/SVG/1.1/DTD/svg11.dtd">
<svg version="1.1" id="Layer_1" xmlns="http://www.w3.org/2000/svg" xmlns:xlink="http://www.w3.org/1999/xlink" x="0px" y="0px"
	 width="612px" height="792px" viewBox="0 0 612 792" enable-background="new 0 0 612 792" xml:space="preserve">
<circle fill="#488DB7" cx="306" cy="396" r="306"/>
<circle fill="#55ACEE" cx="306" cy="396" r="238"/>
<path fill="#FFFFFF" d="M477.431,520.175c8.926,5.752,20.257,4.015,25.351-3.887c5.093-7.902,1.996-18.938-6.931-24.691
	L318.314,377.164c-8.907-5.742-20.256-4.016-25.349,3.887c-5.093,7.902-1.979,18.949,6.929,24.691L477.431,520.175z"/>
<path fill="#FFFFFF" d="M167.715,489.371c5.485,7.632,16.098,9.371,23.722,3.9l124.309-89.218c7.623-5.47,9.363-16.083,3.893-23.707
	c-5.471-7.623-16.098-9.371-23.715-3.916l-124.309,89.218C163.991,471.12,162.244,481.748,167.715,489.371L167.715,489.371z"/>
</svg>
